<?xml version="1.0" encoding="UTF-8"?>
<svg version="1.1" xmlns="http://www.w3.org/2000/svg" width="656" height="527">
<path d="M0 0 C0 0.66 0 1.32 0 2 C0.99 2.2784375 0.99 2.2784375 2 2.5625 C6.33479032 4.63958703 9.50522838 7.74155515 13 11 C13.825 11.7425 14.65 12.485 15.5 13.25 C26.71278063 25.58405869 34.95674698 40.80804907 42.31640625 55.671875 C44.99433788 61.04418564 47.85388379 66.30539901 50.75 71.5625 C54.4720648 78.34696519 58.15523743 85.14723564 61.75 92 C64.98128213 98.14731722 68.36296111 104.18982176 71.83203125 110.20703125 C77.78194893 120.56968789 83.61431478 131.01885216 88.875 141.75 C90.94512155 145.96873113 93.1406854 149.91923687 95.70703125 153.84765625 C97.37920146 156.63123868 98.76590473 159.5180934 100.1875 162.4375 C102.87415946 167.95474711 105.84439306 173.23788286 109 178.5 C112.77022961 184.79079227 116.14382982 191.14201112 119.35546875 197.73828125 C120.95457318 200.90990168 122.68243064 203.94922393 124.5 207 C127.73661971 212.43315713 130.55906032 217.99367766 133.32421875 223.67578125 C134.75970716 226.52333517 136.29306243 229.27945439 137.89086914 232.0378418 C140.15917547 236.05069189 142.25027681 240.15990786 144.375 244.25 C147.68482229 250.61720051 151.04301373 256.95214404 154.49121094 263.24560547 C155.98981137 265.98139999 157.47856418 268.7223391 158.96484375 271.46484375 C165.23823892 283.06730891 165.23823892 283.06730891 171.8125 294.5 C174.92181417 299.74508095 177.62290395 305.15610356 180.31640625 310.62109375 C183.75009643 317.51237451 187.51072263 324.19207578 191.4375 330.8125 C193.91899048 335.02778296 196.1695073 339.29084361 198.3125 343.6875 C200.95679177 349.07687493 203.84815345 354.22940405 206.9375 359.375 C210.67908742 365.60885676 214.0545476 371.93395235 217.23974609 378.46777344 C219.43935002 382.95653259 221.87675507 387.20857981 224.5078125 391.4609375 C227.30646117 396.22303602 229.66675779 401.21311515 232.09130859 406.17236328 C233.00119739 408.00240828 233.94221098 409.81281021 234.89453125 411.62109375 C244.24775519 429.50161224 246.55292954 447.43040155 241 467 C238.13388308 475.79376783 233.76743779 482.81254912 228 490 C227.22785156 490.99128906 226.45570313 491.98257812 225.66015625 493.00390625 C214.71506853 506.02284399 197.47159774 512.32376264 181 514 C177.39453125 514.1328125 177.39453125 514.1328125 174 513 C171.49949799 510.28345837 169.78370285 507.2183945 168 504 C167.25943359 502.70908447 167.25943359 502.70908447 166.50390625 501.39208984 C164.96841204 498.67456422 163.47855311 495.93638622 162 493.1875 C161.47019531 492.20974609 160.94039062 491.23199219 160.39453125 490.22460938 C157.37148517 484.62264373 154.46113389 478.98190589 151.66015625 473.265625 C147.83625546 465.7437872 143.69182852 458.3863486 139.63525391 450.98828125 C136.95106279 446.08316044 134.2873074 441.16702368 131.625 436.25 C131.09237549 435.26708984 130.55975098 434.28417969 130.01098633 433.27148438 C127.1000936 427.89538999 124.2004656 422.51344735 121.3125 417.125 C120.69681152 415.97741211 120.08112305 414.82982422 119.44677734 413.64746094 C118.27330655 411.45903697 117.10161678 409.26965658 115.93212891 407.07910156 C113.15088731 401.89351174 110.30122351 396.76685341 107.31640625 391.6953125 C104.79302293 387.40346387 102.47366887 383.1085438 100.3125 378.625 C95.70765037 369.23363626 90.64497327 360.10110078 85.60742188 350.93701172 C83.44817707 346.99173302 81.3167835 343.03169202 79.18408203 339.07202148 C74.36839621 330.13450882 69.46833567 321.25574602 64.4375 312.4375 C59.52334636 303.81780889 54.86415027 295.09118764 50.30834961 286.27758789 C44.28395005 274.64024519 37.8692208 263.24136023 31.3359375 251.88354492 C27.24848049 244.7739118 23.24489243 237.69012914 19.6640625 230.30859375 C15.85394355 222.73307556 11.67695481 215.34350328 7.59667969 207.91113281 C5.0559311 203.27873432 2.52837525 198.63915971 0 194 C-1.00122213 192.1640189 -2.00252433 190.32808146 -3.00390625 188.4921875 C-3.49906738 187.58436523 -3.99422852 186.67654297 -4.50439453 185.74121094 C-5.99059353 183.01724059 -7.47761102 180.29371857 -8.96484375 177.5703125 C-14.75514646 166.96459527 -20.5198761 156.34551802 -26.26513672 145.71533203 C-30.04104553 138.74046871 -33.86488646 131.79403831 -37.75439453 124.88183594 C-40.01909225 120.84019129 -42.12288504 116.76413599 -44.08569336 112.56640625 C-44.91749535 110.81332638 -44.91749535 110.81332638 -47 110 C-47.24363281 110.66902344 -47.48726562 111.33804688 -47.73828125 112.02734375 C-49.29466687 115.69424609 -51.22376334 119.10411968 -53.1875 122.5625 C-57.78070839 130.73166385 -62.2178842 138.97965258 -66.625 147.25 C-74.44817854 161.92699586 -74.44817854 161.92699586 -78.5625 169 C-80.74671855 172.75964428 -82.78990894 176.52579913 -84.6875 180.4375 C-87.5710449 186.32928363 -90.8064968 191.99449997 -94.0625 197.6875 C-98.84096803 206.05085156 -103.40334614 214.49880265 -107.8125 223.0625 C-114.98697336 236.97365329 -114.98697336 236.97365329 -118.625 243.4375 C-119.51058594 245.01337891 -119.51058594 245.01337891 -120.4140625 246.62109375 C-122 249 -122 249 -125 251 C-127.92989868 246.24379781 -130.58104705 241.34274533 -133.25 236.4375 C-133.76868652 235.48584961 -134.28737305 234.53419922 -134.82177734 233.55371094 C-139.45629309 225.03407886 -144.02885265 216.48166054 -148.59872437 207.92727661 C-152.73372583 200.19006296 -156.91747716 192.48455151 -161.20776367 184.83227539 C-165.66182534 176.8653074 -169.96148824 168.81454079 -174.26782227 160.76708984 C-174.83815186 159.70312988 -175.40848145 158.63916992 -175.99609375 157.54296875 C-176.50325928 156.59446045 -177.0104248 155.64595215 -177.53295898 154.66870117 C-178.95880007 151.96782939 -178.95880007 151.96782939 -180.75024414 149.46606445 C-182 147 -182 147 -181.87670898 144.5612793 C-180.83691401 141.52354911 -179.50349584 138.84381457 -177.97265625 136.01953125 C-177.35076416 134.86525635 -176.72887207 133.71098145 -176.08813477 132.52172852 C-175.41314801 131.28519625 -174.73793123 130.04878953 -174.0625 128.8125 C-173.36925465 127.53271741 -172.6764683 126.25268609 -171.98413086 124.97241211 C-167.61714027 116.9104086 -163.19745979 108.8776456 -158.72265625 100.875 C-155.12904095 94.44824974 -151.56194717 88.00683864 -148 81.5625 C-147.65111725 80.93151398 -147.3022345 80.30052795 -146.94277954 79.65042114 C-142.79493292 72.14305605 -138.70565987 64.61087951 -134.75 57 C-113.89854737 17.07699013 -113.89854737 17.07699013 -101 7 C-100.34 7 -99.68 7 -99 7 C-99 6.34 -99 5.68 -99 5 C-96.8622628 3.46426925 -94.75635702 2.09290399 -92.5 0.75 C-91.8294458 0.35031006 -91.1588916 -0.04937988 -90.46801758 -0.46118164 C-80.51027011 -6.20759083 -69.4534982 -10.56148433 -58 -12 C-57.05511719 -12.13277344 -56.11023438 -12.26554688 -55.13671875 -12.40234375 C-34.76504507 -14.66022539 -17.98470103 -8.78371129 0 0 Z " fill="#F6BE4E" transform="translate(376,13)"/>
<path d="M0 0 C0.60585937 1.16273438 1.21171875 2.32546875 1.8359375 3.5234375 C6.59669762 12.63056154 11.4429441 21.67853142 16.45849609 30.64794922 C18.84289952 34.91285027 21.19462526 39.19159475 23.5 43.5 C26.27056865 48.66955515 29.09099463 53.80950182 31.9375 58.9375 C32.57921143 60.09354736 32.57921143 60.09354736 33.23388672 61.27294922 C35.17701859 64.76291147 37.1314658 68.24452178 39.13671875 71.69921875 C43.05294088 78.44681562 46.64648726 85.24432623 50.07080078 92.25048828 C52.00809966 96.16404105 54.08729603 99.85085364 56.5 103.5 C59.70840503 108.35968346 62.26408659 113.39048179 64.81298828 118.61206055 C67.34636168 123.77096286 70.05800454 128.80335599 72.875 133.8125 C76.2321434 139.79061595 79.51077469 145.79900689 82.6875 151.875 C92.85002401 171.28635693 103.24267135 190.54799399 113.9921875 209.640625 C116.77819936 214.59239898 119.49670977 219.57338042 122.171875 224.5859375 C124.71759769 229.34012902 127.29494264 234.07687081 129.875 238.8125 C130.39360596 239.76471436 130.91221191 240.71692871 131.4465332 241.69799805 C134.51966336 247.32733271 137.64141615 252.92538658 140.8125 258.5 C144.15051526 264.37434635 147.19909994 270.35281964 150.1796875 276.41796875 C154.0196493 284.09574712 158.42056225 291.49346491 162.68359375 298.94140625 C163.13863281 299.74449219 163.59367188 300.54757812 164.0625 301.375 C164.44535156 302.04273438 164.82820312 302.71046875 165.22265625 303.3984375 C166 305 166 305 166 307 C166.66 307 167.32 307 168 307 C168.27166992 306.11715332 168.54333984 305.23430664 168.82324219 304.32470703 C169.91906939 301.22865416 171.18566191 298.63871007 172.828125 295.8046875 C173.37758789 294.84763916 173.92705078 293.89059082 174.49316406 292.90454102 C175.07291992 291.90479248 175.65267578 290.90504395 176.25 289.875 C180.22764872 282.93574416 184.08787551 276.02029197 187.578125 268.82421875 C189.27907481 265.44568383 191.12907417 262.16106537 193 258.875 C197.67595076 250.65693815 202.15051387 242.33505972 206.62158203 234.00415039 C211.00663204 225.83609375 215.43184374 217.69104298 219.88208008 209.55834961 C222.62637457 204.53751191 225.33227564 199.49933597 228 194.4375 C233.09702601 184.82658231 238.56507967 175.42261613 244 166 C249.67620275 167.89206758 251.92070732 174.87209221 254.51171875 179.98046875 C255.51035026 182.00656365 256.506413 184.03392653 257.5 186.0625 C258.89419173 188.79279213 260.39395958 191.39018431 262 194 C264.79784119 198.54832298 267.18126738 203.2387188 269.5078125 208.04296875 C270.85385021 210.71037857 272.29638704 213.29639295 273.79101562 215.88256836 C276.49175683 220.61268315 279.08119571 225.40494605 281.6875 230.1875 C282.57791992 231.80688477 282.57791992 231.80688477 283.48632812 233.45898438 C284.33420898 235.01649414 284.33420898 235.01649414 285.19921875 236.60546875 C285.71315186 237.54543701 286.22708496 238.48540527 286.7565918 239.45385742 C287.85383025 241.70068637 288.64727695 243.53324187 289 246 C287.98828125 248.6796875 287.98828125 248.6796875 286.3125 251.875 C286.00143311 252.47449463 285.69036621 253.07398926 285.36987305 253.69165039 C281.93210211 260.26046753 278.33940487 266.75023771 274.76806641 273.24707031 C270.97638988 280.15708 267.30874648 287.12438092 263.6875 294.125 C260.15871477 300.9390306 256.57550265 307.66795643 252.62524414 314.24829102 C248.79631443 320.73107107 245.30671783 327.41152383 241.7734375 334.05859375 C213.60420868 387.026797 213.60420868 387.026797 187.44140625 396.97265625 C180.78464024 399.00273383 174.28078271 399.27551231 167.375 399.3125 C166.06921997 399.32083862 166.06921997 399.32083862 164.73706055 399.3293457 C149.04200266 399.15615682 136.11319226 393.93705438 124 384 C123.36449219 383.47921875 122.72898437 382.9584375 122.07421875 382.421875 C111.49673883 372.79272087 105.22215988 358.08503173 98.5859375 345.67578125 C95.1410612 339.2383958 91.61791794 332.84591011 88.07919312 326.4598999 C81.9282204 315.35879273 75.86359749 304.21576724 69.86523438 293.03125 C66.64567007 287.03467318 63.38894158 281.06289895 60.0625 275.125 C55.43281223 266.85963995 50.97217945 258.50528486 46.51150513 250.14801025 C42.3584665 242.36954834 38.15556771 234.62444879 33.84106445 226.93432617 C29.69225715 219.50947638 25.71360324 211.99392476 21.71539307 204.48739624 C17.38349413 196.36192589 12.94782782 188.30554102 8.375 180.3125 C3.23745409 171.32612184 -1.58787456 162.20496279 -6.32763672 153.00341797 C-11.77383786 142.44716006 -17.5413838 132.08950059 -23.40625 121.76171875 C-27.18743023 115.09368826 -30.8380616 108.42398916 -34.19921875 101.53125 C-37.20605888 95.63497348 -40.44846532 89.86325205 -43.68676758 84.09130859 C-52.08502002 68.92579625 -56.26320042 53.2411686 -51.4375 36.0625 C-47.18156856 24.08228018 -38.86108366 11.87656764 -27.21582031 6.11767578 C-18.1432046 2.05040331 -9.9956163 -0.17233821 0 0 Z " fill="#415FE1" transform="translate(157,127)"/>
<path d="M0 0 C0.99 0 1.98 0 3 0 C3.45101074 0.87229248 3.45101074 0.87229248 3.91113281 1.76220703 C13.09530912 19.50231478 22.32385803 37.23689229 32.5 54.43359375 C34.52694322 57.90156691 36.43256572 61.43002179 38.33984375 64.96484375 C39.58441884 67.24021985 40.84593203 69.50033906 42.12890625 71.75390625 C47.03863711 80.37950607 51.64253573 89.08187365 56 98 C56.90105469 99.49660156 56.90105469 99.49660156 57.8203125 101.0234375 C59 104 59 104 58.453125 106.86328125 C56.67095446 110.71027842 54.77050443 114.46071674 52.75 118.1875 C52.38003906 118.87908203 52.01007813 119.57066406 51.62890625 120.28320312 C50.42641837 122.52606874 49.2142337 124.76347252 48 127 C47.29411743 128.30457153 47.29411743 128.30457153 46.57397461 129.63549805 C43.6449402 135.03153946 40.65760028 140.38933187 37.61303711 145.72094727 C31.40897404 156.59051264 25.42864758 167.57078864 19.54418945 178.61547852 C15.0062923 187.13208108 10.41300414 195.61617622 5.76733398 204.07446289 C3.90896348 207.46461316 2.0752296 210.84936296 0.34765625 214.30859375 C-0.92865941 216.85752561 -2.31754772 219.26180608 -3.8125 221.6875 C-7.92669787 228.47643693 -11.77748281 235.39238781 -15.1875 242.5625 C-17 246 -17 246 -20 248 C-22.15380859 248.25878906 -22.15380859 248.25878906 -24.6484375 248.265625 C-25.5652832 248.26981445 -26.48212891 248.27400391 -27.42675781 248.27832031 C-28.8861377 248.26430176 -28.8861377 248.26430176 -30.375 248.25 C-31.36854492 248.24323242 -32.36208984 248.23646484 -33.38574219 248.22949219 C-52.86311775 247.95659315 -67.2971857 243.21861581 -81.25 228.9375 C-92.42052049 215.61700486 -96.10995673 200.10190764 -95.18652344 183.05273438 C-94.16826545 171.84656532 -88.17680386 161.76319245 -83 152 C-82.11513937 150.31758567 -81.23028005 148.63517064 -80.34544373 146.95274353 C-73.38108872 133.726703 -66.27437676 120.59767629 -58.86230469 107.61621094 C-54.64344997 100.20274712 -50.57861883 92.71243438 -46.5625 85.1875 C-46.24854279 84.59939545 -45.93458557 84.01129089 -45.6111145 83.40536499 C-44.02884736 80.44028383 -42.44830156 77.47428906 -40.86865234 74.5078125 C-32.98099764 59.70119859 -25.0264269 44.94965369 -16.70947266 30.37915039 C-12.40574794 22.8054192 -8.32756784 15.1264704 -4.3371582 7.38354492 C-3.91136475 6.55830322 -3.48557129 5.73306152 -3.046875 4.8828125 C-2.67401367 4.15465332 -2.30115234 3.42649414 -1.91699219 2.67626953 C-1 1 -1 1 0 0 Z " fill="#F6BE4E" transform="translate(128,279)"/>
<path d="M0 0 C1.21526367 -0.00386719 1.21526367 -0.00386719 2.45507812 -0.0078125 C3.30392578 -0.00007813 4.15277344 0.00765625 5.02734375 0.015625 C5.84912109 0.00789063 6.67089844 0.00015625 7.51757812 -0.0078125 C20.51549256 0.0330936 31.30987554 3.99000444 40.859375 12.96484375 C49.33210565 22.22354199 53.52180136 32.36402869 53.33984375 44.828125 C53.35144531 45.62669922 53.36304688 46.42527344 53.375 47.24804688 C53.33415599 55.60064762 50.24334624 62.0830534 46.52734375 69.453125 C46.19605469 70.11441406 45.86476563 70.77570313 45.5234375 71.45703125 C40.70291634 80.92467352 35.3091302 90.0871611 29.96484375 99.265625 C28.97484375 99.265625 27.98484375 99.265625 26.96484375 99.265625 C20.77877306 87.94277076 14.60539255 76.6132403 8.46484375 65.265625 C4.14299392 57.28017731 -0.18833514 49.30001041 -4.53515625 41.328125 C-5.01533203 40.44705078 -5.49550781 39.56597656 -5.99023438 38.65820312 C-6.44849609 37.81837891 -6.90675781 36.97855469 -7.37890625 36.11328125 C-8.03439453 34.89922607 -8.03439453 34.89922607 -8.703125 33.66064453 C-9.60645036 32.03644699 -10.54826136 30.43317594 -11.5234375 28.85107422 C-15.01975588 23.08287127 -15.01975588 23.08287127 -15.09375 19.15625 C-13.77411437 15.55281692 -12.06161725 12.29700408 -10.09765625 9.015625 C-9.5572168 8.07976562 -9.5572168 8.07976562 -9.00585938 7.125 C-4.84559591 0.01501014 -4.84559591 0.01501014 0 0 Z " fill="#415FE0" transform="translate(496.03515625,126.734375)"/>
<path d="M0 0 C0.66 0 1.32 0 2 0 C2.45375 1.134375 2.9075 2.26875 3.375 3.4375 C4.57095806 7.04721692 4.57095806 7.04721692 7 8 C7.8515625 9.77734375 7.8515625 9.77734375 8.625 11.9375 C8.88539063 12.64777344 9.14578125 13.35804688 9.4140625 14.08984375 C10 16 10 16 10 18 C10.99 18 11.98 18 13 18 C13 19.65 13 21.3 13 23 C13.66 23 14.32 23 15 23 C15 23.99 15 24.98 15 26 C15.66 26 16.32 26 17 26 C17.66 28.31 18.32 30.62 19 33 C19.66 33 20.32 33 21 33 C21.33 35.31 21.66 37.62 22 40 C23.485 40.495 23.485 40.495 25 41 C25.73046875 42.84765625 25.73046875 42.84765625 26.1875 45.0625 C26.34605469 45.79597656 26.50460938 46.52945313 26.66796875 47.28515625 C26.83232422 48.13400391 26.83232422 48.13400391 27 49 C27.66 49 28.32 49 29 49 C29 49.99 29 50.98 29 52 C29.66 52 30.32 52 31 52 C31.26554687 52.71027344 31.53109375 53.42054688 31.8046875 54.15234375 C32.15789062 55.07144531 32.51109375 55.99054688 32.875 56.9375 C33.22304687 57.85402344 33.57109375 58.77054687 33.9296875 59.71484375 C34.7819086 62.14941056 34.7819086 62.14941056 37 63 C37 63.99 37 64.98 37 66 C37.66 66 38.32 66 39 66 C39.2475 67.010625 39.495 68.02125 39.75 69.0625 C40.54863252 71.90979855 41.61844481 74.26952032 43.125 76.8125 C45 80 45 80 45 82 C45.66 82 46.32 82 47 82 C48.19716659 84.45404224 49.3829346 86.91251679 50.5625 89.375 C51.07586914 90.42300781 51.07586914 90.42300781 51.59960938 91.4921875 C52.46030712 93.30052216 53.23652436 95.14851956 54 97 C53.67 97.66 53.34 98.32 53 99 C45.38232534 85.80941649 38.08563773 72.48177811 31 59 C25.28739109 48.13111845 19.45961077 37.35383239 13.3684082 26.69067383 C10.06171951 20.89741515 6.82479266 15.07440065 3.6875 9.1875 C3.30779053 8.48101318 2.92808105 7.77452637 2.53686523 7.04663086 C0 2.24295963 0 2.24295963 0 0 Z " fill="#4459BC" transform="translate(156,288)"/>
<path d="M0 0 C0.66 0 1.32 0 2 0 C3.00732399 1.93370231 4.00563288 3.87210306 5 5.8125 C5.8353125 7.43091797 5.8353125 7.43091797 6.6875 9.08203125 C8 12 8 12 8 15 C8.66 15 9.32 15 10 15 C11.4606285 17.64738916 12 18.89448334 12 22 C12.66 22 13.32 22 14 22 C14 23.32 14 24.64 14 26 C14.66 26 15.32 26 16 26 C16 27.32 16 28.64 16 30 C16.66 30 17.32 30 18 30 C18.70576172 31.42892578 18.70576172 31.42892578 19.42578125 32.88671875 C20.05457916 34.15369961 20.68349148 35.42062369 21.3125 36.6875 C21.7755957 37.62625977 21.7755957 37.62625977 22.24804688 38.58398438 C23.65010166 41.40285242 25.0883494 44.14458987 26.73046875 46.83203125 C28 49 28 49 28 51 C28.66 51 29.32 51 30 51 C31.25664978 53.90600261 32 55.79604584 32 59 C32.66 59 33.32 59 34 59 C34.23187012 59.50450684 34.46374023 60.00901367 34.70263672 60.52880859 C35.75554355 62.81300077 36.81518168 65.09400694 37.875 67.375 C38.42220703 68.56609375 38.42220703 68.56609375 38.98046875 69.78125 C39.51220703 70.92207031 39.51220703 70.92207031 40.0546875 72.0859375 C40.54171143 73.1385376 40.54171143 73.1385376 41.03857422 74.21240234 C41.98408273 76.17596008 41.98408273 76.17596008 44 78 C44 78.99 44 79.98 44 81 C44.66 81 45.32 81 46 81 C46.33 82.65 46.66 84.3 47 86 C46.34 86 45.68 86 45 86 C43.57795253 83.35905471 42.15590977 80.71810688 40.73388672 78.07714844 C39.47777918 75.74442444 38.22160535 73.41173627 36.96533203 71.07910156 C33.76669258 65.13967124 30.56919049 59.19963724 27.375 53.2578125 C21.75391259 42.80416541 16.12042954 32.35768548 10.4375 21.9375 C9.96103027 21.06383789 9.48456055 20.19017578 8.99365234 19.29003906 C8.54070801 18.46084961 8.08776367 17.63166016 7.62109375 16.77734375 C7.18909668 15.98440918 6.75709961 15.19147461 6.31201172 14.37451172 C5.40734566 12.73722439 4.48602122 11.10906881 3.55126953 9.48876953 C3.09220215 8.68938965 2.63313477 7.89000977 2.16015625 7.06640625 C1.74515869 6.35556885 1.33016113 5.64473145 0.90258789 4.91235352 C0 3 0 3 0 0 Z " fill="#EBB955" transform="translate(503,438)"/>
<path d="M0 0 C0.94875 0.825 1.8975 1.65 2.875 2.5 C4.24938095 3.66739587 5.62444737 4.83398496 7 6 C7.76054687 6.66128906 8.52109375 7.32257813 9.3046875 8.00390625 C18.35046566 15.61912205 27.43577924 20.13922046 39.32421875 20.203125 C40.55456596 20.21167511 40.55456596 20.21167511 41.80976868 20.22039795 C43.54723829 20.22984324 45.28472578 20.23638006 47.0222168 20.24023438 C49.66031904 20.24990041 52.29762875 20.28091112 54.93554688 20.3125 C56.62759956 20.31903453 58.3196578 20.32428323 60.01171875 20.328125 C60.79222092 20.3404718 61.57272308 20.3528186 62.37687683 20.36553955 C67.87225866 20.34356466 71.9877955 19.29724583 77 17 C77.33 16.34 77.66 15.68 78 15 C80.06640625 14.1484375 80.06640625 14.1484375 82.5625 13.375 C83.38878906 13.11460937 84.21507812 12.85421875 85.06640625 12.5859375 C85.70449219 12.39257812 86.34257812 12.19921875 87 12 C80.92886004 19.4509445 70.19789852 22.74885121 61 24 C57.45711665 24.22263436 53.92441006 24.2934892 50.375 24.3125 C49.06921997 24.32083862 49.06921997 24.32083862 47.73706055 24.3293457 C29.14073757 24.12414248 14.15864133 16.55085661 1.14453125 3.4453125 C0 2 0 2 0 0 Z " fill="#3D59CD" transform="translate(274,502)"/>
<path d="M0 0 C0.99 0.33 1.98 0.66 3 1 C1.71937515 2.7074998 0.38232443 4.37373596 -1 6 C-1.66 6 -2.32 6 -3 6 C-3.2475 6.61875 -3.495 7.2375 -3.75 7.875 C-5 10 -5 10 -7 10.875 C-9.99123777 12.55757124 -9.99708065 14.75526094 -11 18 C-11.83711126 19.40612806 -12.69295396 20.80119517 -13.5625 22.1875 C-16.18233449 26.69730306 -16.6587173 30.65273053 -16.859375 35.8125 C-17 38 -17 38 -18 39 C-17.98802794 41.54106949 -17.90531283 44.02920648 -17.75 46.5625 C-17.70697754 47.29106201 -17.66395508 48.01962402 -17.61962891 48.77026367 C-17.23798223 54.01996049 -16.0899772 58.15505285 -14 63 C-14.33 63.99 -14.66 64.98 -15 66 C-15.65134925 64.43979133 -16.29582964 62.87671421 -16.9375 61.3125 C-17.29714844 60.44238281 -17.65679687 59.57226562 -18.02734375 58.67578125 C-22.37382332 46.71859851 -21.16321905 31.45542186 -16 20 C-11.92647439 12.58070161 -7.1534364 4.7689576 0 0 Z " fill="#3D57CB" transform="translate(124,137)"/>
<path d="M0 0 C0.9002515 2.46254483 1.14193379 3.62515809 0.19897461 6.11547852 C-0.44285767 7.23587524 -0.44285767 7.23587524 -1.09765625 8.37890625 C-1.5666333 9.21236572 -2.03561035 10.0458252 -2.51879883 10.90454102 C-3.02822021 11.78166748 -3.5376416 12.65879395 -4.0625 13.5625 C-5.08858999 15.37497265 -6.11463207 17.18747241 -7.140625 19 C-7.88602539 20.30130859 -7.88602539 20.30130859 -8.64648438 21.62890625 C-10.23975227 24.41999893 -11.78395075 27.23550568 -13.3125 30.0625 C-14.73947254 32.6889567 -16.17242835 35.31120201 -17.62109375 37.92578125 C-18.42740234 39.38564453 -18.42740234 39.38564453 -19.25 40.875 C-19.96929687 42.17050781 -19.96929687 42.17050781 -20.703125 43.4921875 C-22.04310155 45.98308504 -22.04310155 45.98308504 -23.05078125 48.63671875 C-24.29180606 51.72651303 -26.14245471 54.24182669 -28 57 C-29.02930047 58.98507948 -30.03863929 60.98114251 -31 63 C-31.66 63 -32.32 63 -33 63 C-31.69769453 58.77289594 -30.08449031 55.02032728 -27.98046875 51.1328125 C-27.3762207 50.01076416 -26.77197266 48.88871582 -26.14941406 47.73266602 C-25.49557272 46.53003998 -24.84159843 45.32748622 -24.1875 44.125 C-23.5162002 42.88294796 -22.84530672 41.64067624 -22.17480469 40.39819336 C-20.80006586 37.85269293 -19.42248641 35.30876196 -18.04248047 32.76611328 C-16.09616583 29.17952281 -14.15863776 25.58827291 -12.22265625 21.99609375 C-11.06537142 19.85141827 -9.90783198 17.70688014 -8.75 15.5625 C-8.2139917 14.56943848 -7.6779834 13.57637695 -7.12573242 12.55322266 C-6.62533447 11.62944824 -6.12493652 10.70567383 -5.609375 9.75390625 C-5.17592773 8.95283447 -4.74248047 8.1517627 -4.29589844 7.32641602 C-2.91675399 4.85055553 -1.47029327 2.42265452 0 0 Z " fill="#EDBD5E" transform="translate(112,308)"/>
<path d="M0 0 C0.66 0 1.32 0 2 0 C2.35191406 0.65371582 2.70382812 1.30743164 3.06640625 1.98095703 C11.04645683 16.85096983 11.04645683 16.85096983 19.3125 31.5625 C22.09104055 36.40119775 24.86355365 41.24144481 27.5625 46.125 C27.92190674 46.75349854 28.28131348 47.38199707 28.65161133 48.02954102 C31.06445799 52.45078264 31.06445799 52.45078264 30.71484375 55.4296875 C30.47894531 55.94789063 30.24304688 56.46609375 30 57 C26.47220981 51.30219453 23.21392105 45.56651637 20.26953125 39.546875 C18.49992186 35.99676632 16.58422186 32.53334771 14.671875 29.05859375 C12.38220539 24.86978228 10.14597954 20.65312592 7.90893555 16.43603516 C5.61726816 12.1261664 3.25873775 7.86130697 0.8125 3.63671875 C0 2 0 2 0 0 Z " fill="#EDBC58" transform="translate(569,351)"/>
<path d="M0 0 C3.67924548 1.22641516 4.14199485 2.68609635 5.85351562 6.01391602 C6.21123047 6.73119873 6.56894531 7.44848145 6.9375 8.1875 C7.73674328 9.74297871 8.53760729 11.29762541 9.33984375 12.8515625 C9.76765137 13.68461914 10.19545898 14.51767578 10.63623047 15.37597656 C13.02566606 19.97347991 15.51358619 24.51691976 18 29.0625 C18.50490967 29.98716064 19.00981934 30.91182129 19.5300293 31.86450195 C23.95284257 39.94772177 28.4533211 47.98590436 33 56 C32.01 56 31.02 56 30 56 C25.17550612 50.54278561 22.13068574 43.51079424 19 37 C17.63452007 34.20358158 16.25601599 31.41377148 14.875 28.625 C14.53807129 27.93462646 14.20114258 27.24425293 13.85400391 26.53295898 C12.46690764 23.73028329 11.15758302 21.20704854 9.2578125 18.7109375 C8 17 8 17 8 14 C7.34 14 6.68 14 6 14 C4.74335022 11.09399739 4 9.20395416 4 6 C3.34 6 2.68 6 2 6 C1.34 4.02 0.68 2.04 0 0 Z " fill="#405ACA" transform="translate(269,337)"/>
<path d="M0 0 C0.78294434 0.0736377 1.56588867 0.14727539 2.37255859 0.22314453 C6.4661828 0.70290115 8.66797569 1.14042476 11.375 4.25 C10.1684375 4.08757813 8.961875 3.92515625 7.71875 3.7578125 C1.4422635 3.06179147 -4.81696242 3.10397321 -11.125 3.125 C-12.31609375 3.12113281 -13.5071875 3.11726562 -14.734375 3.11328125 C-15.86359375 3.11457031 -16.9928125 3.11585937 -18.15625 3.1171875 C-19.18298828 3.11831543 -20.20972656 3.11944336 -21.26757812 3.12060547 C-23.58210499 2.9846748 -23.58210499 2.9846748 -24.625 4.25 C-27.3284148 4.78977577 -30.04395551 5.21466987 -32.765625 5.65234375 C-35.64972965 6.15942057 -35.64972965 6.15942057 -38.296875 7.37890625 C-40.625 8.25 -40.625 8.25 -43.625 7.25 C-39.66296916 4.58324847 -35.72494485 3.23053296 -31.125 2.125 C-30.41649902 1.95468262 -29.70799805 1.78436523 -28.97802734 1.60888672 C-19.17857354 -0.64338047 -9.98266692 -0.98694757 0 0 Z " fill="#EDBE60" transform="translate(340.625,0.75)"/>
<path d="M0 0 C3.96873434 1.32291145 4.29905037 2.91149738 6.1875 6.5625 C6.71730469 7.57441406 7.24710937 8.58632813 7.79296875 9.62890625 C8.19128906 10.41136719 8.58960938 11.19382812 9 12 C8.01 12 7.02 12 6 12 C4.68 9.36 3.36 6.72 2 4 C1.34 4 0.68 4 0 4 C-2.64 9.61 -5.28 15.22 -8 21 C-8.66 21 -9.32 21 -10 21 C-10.23460937 21.81726563 -10.46921875 22.63453125 -10.7109375 23.4765625 C-12.26733657 27.73071995 -14.36169958 31.46373396 -16.625 35.375 C-17.04523438 36.11105469 -17.46546875 36.84710938 -17.8984375 37.60546875 C-18.92752764 39.4063765 -19.96310756 41.20357318 -21 43 C-22 40 -22 40 -21.38598633 38.24853516 C-21.03818115 37.60190918 -20.69037598 36.9552832 -20.33203125 36.2890625 C-19.93870605 35.54825439 -19.54538086 34.80744629 -19.14013672 34.04418945 C-18.7020166 33.24585693 -18.26389648 32.44752441 -17.8125 31.625 C-17.36922363 30.8002417 -16.92594727 29.9754834 -16.46923828 29.12573242 C-11.15998511 19.31675395 -5.59415064 9.64853378 0 0 Z " fill="#465FC9" transform="translate(401,293)"/>
<path d="M0 0 C0.66 0 1.32 0 2 0 C2 0.66 2 1.32 2 2 C1.34 2 0.68 2 0 2 C-0.13277344 2.85464844 -0.26554687 3.70929688 -0.40234375 4.58984375 C-0.66724609 6.24693359 -0.66724609 6.24693359 -0.9375 7.9375 C-1.11152344 9.03964844 -1.28554688 10.14179688 -1.46484375 11.27734375 C-2 14 -2 14 -3 15 C-3.1284374 18.01081155 -3.18523579 20.98859628 -3.1875 24 C-3.19974609 24.82628906 -3.21199219 25.65257812 -3.22460938 26.50390625 C-3.24403359 34.77862178 -1.93324248 41.66986628 2 49 C2 49.66 2 50.32 2 51 C1.01 50.67 0.02 50.34 -1 50 C-2.1328125 47.70703125 -2.1328125 47.70703125 -3.125 44.8125 C-3.45757812 43.87019531 -3.79015625 42.92789063 -4.1328125 41.95703125 C-7.87421393 29.19918942 -7.14894002 15.21463874 -2 3 C-1.34 2.01 -0.68 1.02 0 0 Z " fill="#EEBD5A" transform="translate(39,444)"/>
<path d="M0 0 C0.66 0 1.32 0 2 0 C2.66 2.64 3.32 5.28 4 8 C4.66 8 5.32 8 6 8 C6.4125 8.83660156 6.825 9.67320312 7.25 10.53515625 C14.87666137 26.29428438 14.87666137 26.29428438 23.8125 41.3125 C26.56789484 45.52937115 27.77811074 50.15217918 29 55 C26.34201861 52.62591385 24.89262385 50.17886206 23.28515625 47.01171875 C22.76920898 46.0052832 22.25326172 44.99884766 21.72167969 43.96191406 C21.17415039 42.88135742 20.62662109 41.80080078 20.0625 40.6875 C15.11541495 31.02113768 10.03164003 21.45265552 4.69555664 11.99487305 C4.2236792 11.14578369 3.75180176 10.29669434 3.265625 9.421875 C2.85086914 8.68549805 2.43611328 7.94912109 2.00878906 7.19042969 C0.91020787 4.80503026 0.41669595 2.58533153 0 0 Z " fill="#E9B859" transform="translate(459,356)"/>
<path d="M0 0 C0.33 0 0.66 0 1 0 C1.26061474 3.98065861 0.63533755 6.27478564 -1.30859375 9.73828125 C-1.80456055 10.63401855 -2.30052734 11.52975586 -2.81152344 12.45263672 C-3.61638184 13.86826904 -3.61638184 13.86826904 -4.4375 15.3125 C-4.97793945 16.28203613 -5.51837891 17.25157227 -6.07519531 18.25048828 C-7.70691714 21.17266622 -9.35251605 24.08668667 -11 27 C-11.93447699 28.66747408 -12.8681363 30.33540679 -13.80078125 32.00390625 C-15.85595562 35.67570646 -17.92363482 39.3401442 -20 43 C-20.99 43 -21.98 43 -23 43 C-24.03046722 41.21385682 -25.04913236 39.42089982 -26.0625 37.625 C-26.63097656 36.62726563 -27.19945312 35.62953125 -27.78515625 34.6015625 C-28.18605469 33.74304688 -28.58695313 32.88453125 -29 32 C-28.67 31.34 -28.34 30.68 -28 30 C-26.35 32.97 -24.7 35.94 -23 39 C-19.13083569 37.71027856 -18.89134983 36.43567844 -17.0625 32.875 C-16.28132812 31.37839844 -16.28132812 31.37839844 -15.484375 29.8515625 C-14.99453125 28.91054687 -14.5046875 27.96953125 -14 27 C-13.27891866 25.74531847 -12.55118444 24.49439918 -11.8125 23.25 C-9.9388595 19.89036876 -8.45199413 16.55738563 -7 13 C-6.34 13 -5.68 13 -5 13 C-4.87753906 12.43796875 -4.75507812 11.8759375 -4.62890625 11.296875 C-3.9480131 8.81013481 -3.00647675 6.59485224 -1.9375 4.25 C-1.57527344 3.45078125 -1.21304688 2.6515625 -0.83984375 1.828125 C-0.56269531 1.22484375 -0.28554688 0.6215625 0 0 Z " fill="#3F57C1" transform="translate(546,183)"/>
<path d="M0 0 C0.33 0.66 0.66 1.32 1 2 C0.0625 4.625 0.0625 4.625 -1 7 C-1.66 7 -2.32 7 -3 7 C-3.2475 7.639375 -3.495 8.27875 -3.75 8.9375 C-8.2983384 20.08092908 -13.82963748 30.39277497 -20.38671875 40.4921875 C-21.97773391 42.96538782 -23.49977112 45.47091325 -25 48 C-25.33 47.34 -25.66 46.68 -26 46 C-25.29418945 44.1784668 -25.29418945 44.1784668 -24.11328125 41.94921875 C-23.675 41.11511475 -23.23671875 40.28101074 -22.78515625 39.42163086 C-22.29917969 38.51936768 -21.81320313 37.61710449 -21.3125 36.6875 C-20.82007813 35.76138916 -20.32765625 34.83527832 -19.8203125 33.88110352 C-16.14315912 27.01249128 -12.35305859 20.20880213 -8.5 13.4375 C-7.99637939 12.55215576 -7.49275879 11.66681152 -6.97387695 10.75463867 C-6.49781006 9.92681885 -6.02174316 9.09899902 -5.53125 8.24609375 C-4.90573242 7.15832642 -4.90573242 7.15832642 -4.26757812 6.04858398 C-2.9576986 3.93163501 -1.52248654 1.96820721 0 0 Z " fill="#EBB955" transform="translate(261,36)"/>
<path d="M0 0 C0.66 0.33 1.32 0.66 2 1 C5.71534835 14.36096428 2.27202175 29.96535927 -4 42 C-4.66 42 -5.32 42 -6 42 C-5.3099909 38.871088 -4.21538502 36.08973753 -2.984375 33.13671875 C-0.50346566 26.39272785 -0.33451261 19.93844924 -0.25 12.8125 C-0.22035156 11.57435547 -0.19070313 10.33621094 -0.16015625 9.06054688 C-0.09018919 6.04030206 -0.03713176 3.02079636 0 0 Z " fill="#EBBD5D" transform="translate(617,447)"/>
<path d="M0 0 C0.28198242 0.53890869 0.56396484 1.07781738 0.85449219 1.63305664 C2.15164958 4.11024481 3.45081084 6.58637685 4.75 9.0625 C5.1934375 9.91005859 5.636875 10.75761719 6.09375 11.63085938 C8.09846697 15.44866596 10.1183383 19.23015494 12.328125 22.93359375 C14 26 14 26 14 29 C13.34 29 12.68 29 12 29 C11.56429687 28.10539062 11.12859375 27.21078125 10.6796875 26.2890625 C7.41899861 19.6526449 4.0754732 13.2164662 0.06640625 6.98828125 C-1 5 -1 5 -1 2 C-1.56847656 2.144375 -2.13695312 2.28875 -2.72265625 2.4375 C-7.62262205 3.61545505 -11.9645312 4.21427527 -17 4 C-17 3.34 -17 2.68 -17 2 C-15.66961551 1.6550855 -14.33542939 1.32483418 -13 1 C-11.88625 0.7215625 -11.88625 0.7215625 -10.75 0.4375 C-7.12427016 -0.13932066 -3.67062473 -0.06221398 0 0 Z " fill="#455FCB" transform="translate(157,127)"/>
<path d="M0 0 C0.66 0.33 1.32 0.66 2 1 C1.59652344 1.69738281 1.19304687 2.39476562 0.77734375 3.11328125 C-4.85486779 12.90687201 -10.3380791 22.78180518 -15.80688477 32.66723633 C-16.43393311 33.7992749 -17.06098145 34.93131348 -17.70703125 36.09765625 C-18.2688208 37.11351807 -18.83061035 38.12937988 -19.40942383 39.17602539 C-19.93431396 40.10793701 -20.4592041 41.03984863 -21 42 C-21.52166748 42.94673584 -22.04333496 43.89347168 -22.58081055 44.86889648 C-23.28330933 45.92379272 -23.28330933 45.92379272 -24 47 C-24.66 47 -25.32 47 -26 47 C-25.71382812 46.43796875 -25.42765625 45.8759375 -25.1328125 45.296875 C-23.98584069 42.97129077 -22.92160206 40.62229799 -21.875 38.25 C-21.34519531 37.05117188 -21.34519531 37.05117188 -20.8046875 35.828125 C-20.53914062 35.22484375 -20.27359375 34.6215625 -20 34 C-19.34 34 -18.68 34 -18 34 C-17.83177734 32.92685547 -17.83177734 32.92685547 -17.66015625 31.83203125 C-16.95543995 28.80884002 -15.86712202 26.43677312 -14.4375 23.6875 C-13.98246094 22.80449219 -13.52742187 21.92148437 -13.05859375 21.01171875 C-12.70925781 20.34785156 -12.35992187 19.68398438 -12 19 C-11.34 19 -10.68 19 -10 19 C-10 17.68 -10 16.36 -10 15 C-9 14 -8 13 -7 12 C-5.8595593 9.70884436 -4.94429462 7.38321975 -4 5 C-3.34 5 -2.68 5 -2 5 C-1.34 3.35 -0.68 1.7 0 0 Z " fill="#EAB454" transform="translate(171,411)"/>
<path d="M0 0 C0.66 0 1.32 0 2 0 C2.31710938 0.64582031 2.63421875 1.29164063 2.9609375 1.95703125 C6.26174008 8.62246408 9.66467401 15.22867694 13.125 21.8125 C13.54442871 22.61212158 13.96385742 23.41174316 14.39599609 24.2355957 C16.84302704 28.87799887 19.36893925 33.45929838 22 38 C21.01 38 20.02 38 19 38 C18.01515892 36.25318707 17.03733813 34.5024149 16.0625 32.75 C15.51722656 31.77546875 14.97195312 30.8009375 14.41015625 29.796875 C13.23389165 27.46389591 12.47898309 25.54649238 12 23 C11.34 23 10.68 23 10 23 C9.16235732 21.04350603 8.33000941 19.08474444 7.5 17.125 C7.0359375 16.03445312 6.571875 14.94390625 6.09375 13.8203125 C5 11 5 11 5 9 C4.01 8.67 3.02 8.34 2 8 C1.26953125 6.15234375 1.26953125 6.15234375 0.8125 3.9375 C0.65394531 3.20402344 0.49539062 2.47054687 0.33203125 1.71484375 C0.22246094 1.14894531 0.11289063 0.58304688 0 0 Z " fill="#4256B0" transform="translate(193,196)"/>
<path d="M0 0 C3.84219057 1.28073019 4.09419956 2.47894164 5.9609375 5.99609375 C6.51523437 7.03056641 7.06953125 8.06503906 7.640625 9.13085938 C8.21296875 10.22205078 8.7853125 11.31324219 9.375 12.4375 C9.93960938 13.49388672 10.50421875 14.55027344 11.0859375 15.63867188 C14.4944135 22.04139936 17.79229267 28.4945221 21 35 C20.34 35 19.68 35 19 35 C15.0411419 30.24937028 12.4352069 25.04417237 9.74316406 19.49462891 C7.18942284 14.26321901 4.31163419 9.30352171 1.28515625 4.328125 C0 2 0 2 0 0 Z " fill="#EDBA57" transform="translate(533,285)"/>
<path d="M0 0 C7.14012143 1.32399603 11.61923427 7.22358422 15.6262207 12.89550781 C17.46099756 15.57045312 19.24802389 18.27009639 21 21 C21.60199219 21.91523437 22.20398438 22.83046875 22.82421875 23.7734375 C23.21222656 24.50820313 23.60023438 25.24296875 24 26 C23.67 26.66 23.34 27.32 23 28 C21.5 26.6875 21.5 26.6875 20 25 C20 24.01 20 23.02 20 22 C19.34 22 18.68 22 18 22 C16.73078387 20.37921697 15.53497379 18.7006787 14.375 17 C8.32056403 8.31234527 8.32056403 8.31234527 0 2 C0 1.34 0 0.68 0 0 Z " fill="#ECB554" transform="translate(381,19)"/>
<path d="M0 0 C0.66 0 1.32 0 2 0 C2 1.32 2 2.64 2 4 C1.34 4 0.68 4 0 4 C-0.11601562 4.56847656 -0.23203125 5.13695312 -0.3515625 5.72265625 C-1.06302011 8.22132967 -2.0863532 10.18432059 -3.375 12.4375 C-3.82101562 13.22382813 -4.26703125 14.01015625 -4.7265625 14.8203125 C-5.70794306 16.50009886 -6.72221315 18.1606997 -7.75 19.8125 C-9.08433872 21.90715342 -9.08433872 21.90715342 -9.5 24.125 C-10.12541703 26.47031388 -11.30591709 27.30591709 -13 29 C-13.144375 29.66 -13.28875 30.32 -13.4375 31 C-14.20391605 33.72503485 -15.67901268 34.50258883 -18 36 C-15.93378362 25.95067487 -8.99243523 16.31172808 -3.953125 7.46875 C-2.5632062 5.00025422 -1.22399869 2.55216749 0 0 Z " fill="#425CCB" transform="translate(357,373)"/>
<path d="M0 0 C3.56621081 1.18873694 3.68482731 1.74593691 5.3046875 4.97265625 C5.72363281 5.79056641 6.14257812 6.60847656 6.57421875 7.45117188 C7.00347656 8.31291016 7.43273437 9.17464844 7.875 10.0625 C8.7234203 11.74247598 9.57496247 13.42087916 10.4296875 15.09765625 C10.84702148 15.92023926 11.26435547 16.74282227 11.69433594 17.59033203 C13.32787971 20.60511832 15.20357619 23.41187955 17.18408203 26.20874023 C18.23280325 28.51109438 17.8322032 29.66629658 17 32 C3.24137931 9.72413793 3.24137931 9.72413793 0 0 Z " fill="#ECBC57" transform="translate(513,248)"/>
<path d="M0 0 C2.97941998 -0.05455703 5.95781531 -0.09393851 8.9375 -0.125 C10.18370117 -0.15013672 10.18370117 -0.15013672 11.45507812 -0.17578125 C18.76436179 -0.23266283 25.48204256 0.52046828 32 4 C32 4.66 32 5.32 32 6 C30.3743193 5.69106068 28.74947252 5.3777305 27.125 5.0625 C26.22007812 4.88847656 25.31515625 4.71445313 24.3828125 4.53515625 C22 4 22 4 20 3 C18.40737934 2.84824451 16.80935144 2.75099675 15.2109375 2.68359375 C14.26992188 2.64169922 13.32890625 2.59980469 12.359375 2.55664062 C11.37453125 2.51732422 10.3896875 2.47800781 9.375 2.4375 C8.38242187 2.39431641 7.38984375 2.35113281 6.3671875 2.30664062 C3.91160162 2.20038931 1.45591297 2.09835036 -1 2 C-0.67 1.34 -0.34 0.68 0 0 Z " fill="#445ECB" transform="translate(492,127)"/>
<path d="M0 0 C0.66 0 1.32 0 2 0 C3.69140625 2.08203125 3.69140625 2.08203125 5.5625 4.8125 C6.18253906 5.70582031 6.80257812 6.59914063 7.44140625 7.51953125 C9 10 9 10 10 13 C12.01508358 13.73323796 12.01508358 13.73323796 14 14 C14 14.66 14 15.32 14 16 C14.763125 16.2475 15.52625 16.495 16.3125 16.75 C19.2364045 18.10995558 20.30004356 19.31585826 22 22 C13.58770512 20.49983906 7.03245263 12.41254352 2 6 C0 3 0 3 0 0 Z " fill="#ECBC58" transform="translate(41,497)"/>
<path d="M0 0 C0.66 0 1.32 0 2 0 C2.38478516 0.804375 2.38478516 0.804375 2.77734375 1.625 C5.91196531 8.04200305 9.3460429 14.26026528 12.87670898 20.46484375 C14.66421508 23.60845525 16.43548833 26.7371147 18 30 C17.01 30 16.02 30 15 30 C10.57142857 22.57142857 10.57142857 22.57142857 10 19 C9.34 19 8.68 19 8 19 C7.63648438 18.03900391 7.63648438 18.03900391 7.265625 17.05859375 C5.64836702 12.88482412 4.03394298 8.85823226 1.75 5 C0 2 0 2 0 0 Z " fill="#3C4FB2" transform="translate(219,244)"/>
<path d="M0 0 C1 2 1 2 0.328125 4.27734375 C-0.02765625 5.15519531 -0.3834375 6.03304687 -0.75 6.9375 C-1.09546875 7.81277344 -1.4409375 8.68804687 -1.796875 9.58984375 C-2.97561939 11.95115962 -4.12894561 13.19380883 -6 15 C-6.97715609 16.80190614 -6.97715609 16.80190614 -7.6875 18.6875 C-8.120625 19.780625 -8.55375 20.87375 -9 22 C-9.66 22 -10.32 22 -11 22 C-11 23.65 -11 25.3 -11 27 C-11.99 27.33 -12.98 27.66 -14 28 C-15.21869929 30.50447516 -15.21869929 30.50447516 -16 33 C-16.66 32.67 -17.32 32.34 -18 32 C-17.63237549 31.35039307 -17.26475098 30.70078613 -16.88598633 30.03149414 C-15.19446501 27.04203251 -13.50347934 24.05226822 -11.8125 21.0625 C-11.23435547 20.04091797 -10.65621094 19.01933594 -10.06054688 17.96679688 C-6.68168512 11.99174755 -3.32196589 6.00688145 0 0 Z " fill="#EAB957" transform="translate(222,106)"/>
<path d="M0 0 C0 3.58331813 -0.9067665 4.76388717 -2.8125 7.75 C-5.28241325 11.73186949 -7.16269406 15.68632517 -9 20 C-10.58819346 22.71917971 -12.27080288 25.36861308 -14 28 C-15.02805242 25.34972094 -15.09793524 24.25429603 -14.05957031 21.55810547 C-13.57069336 20.67010254 -13.08181641 19.78209961 -12.578125 18.8671875 C-11.78148437 17.41119141 -11.78148437 17.41119141 -10.96875 15.92578125 C-10.4015625 14.91902344 -9.834375 13.91226562 -9.25 12.875 C-8.69828125 11.86050781 -8.1465625 10.84601563 -7.578125 9.80078125 C-3.4075585 2.27170567 -3.4075585 2.27170567 0 0 Z " fill="#EEBC5A" transform="translate(56,414)"/>
<path d="M0 0 C0.66 0 1.32 0 2 0 C4.001836 3.64353927 5.9954087 7.29143853 7.98144531 10.94360352 C8.65822599 12.18539548 9.33724963 13.42596775 10.01855469 14.6652832 C10.9974645 16.44687052 11.96822431 18.23268836 12.9375 20.01953125 C13.52402344 21.09307861 14.11054688 22.16662598 14.71484375 23.27270508 C16 26 16 26 16 29 C15.34 29 14.68 29 14 29 C13.57589844 28.14019531 13.15179688 27.28039062 12.71484375 26.39453125 C9.05530399 19.01915112 5.28065919 11.74756162 1.28515625 4.546875 C0 2 0 2 0 0 Z " fill="#EBBB5D" transform="translate(145,309)"/>
<path d="M0 0 C5.03915521 1.6797184 6.35195397 6.71150667 8.6875 11.25 C9.19861328 12.20519531 9.70972656 13.16039062 10.23632812 14.14453125 C10.71908203 15.07136719 11.20183594 15.99820312 11.69921875 16.953125 C12.14096436 17.80036133 12.58270996 18.64759766 13.0378418 19.52050781 C14.07620691 22.19638603 14.18721073 24.15592254 14 27 C11.05930891 25.52965446 10.93766285 23.22164798 9.89208984 20.27246094 C8.41496759 16.5097204 6.3577581 13.10226497 4.3125 9.625 C0 2.25697674 0 2.25697674 0 0 Z " fill="#EDBD5C" transform="translate(601,410)"/>
<path d="M0 0 C6.31160719 0.81940163 9.79159941 4.45464059 14 9 C16.54908077 12.55100465 18.83118714 16.20632092 21 20 C20.34 20.66 19.68 21.32 19 22 C18.41605469 20.96552734 18.41605469 20.96552734 17.8203125 19.91015625 C13.46732569 12.598342 8.51385239 7.41828672 2 2 C1.34 1.34 0.68 0.68 0 0 Z " fill="#475FC9" transform="translate(525,133)"/>
<path d="M0 0 C0.66 0 1.32 0 2 0 C5.63 6.6 9.26 13.2 13 20 C12.01 20.33 11.02 20.66 10 21 C8.51361733 18.25384196 7.03718828 15.50245309 5.5625 12.75 C5.14162109 11.97269531 4.72074219 11.19539063 4.28710938 10.39453125 C3.88427734 9.64042969 3.48144531 8.88632812 3.06640625 8.109375 C2.69459229 7.41811523 2.32277832 6.72685547 1.93969727 6.01464844 C1.00925892 4.01985051 0.45699179 2.14807202 0 0 Z " fill="#EABA5D" transform="translate(133,287)"/>
<path d="M0 0 C0.66 0.33 1.32 0.66 2 1 C1.34 2.65 0.68 4.3 0 6 C-0.66 6 -1.32 6 -2 6 C-2.17015625 6.556875 -2.3403125 7.11375 -2.515625 7.6875 C-6.80241475 21.1863273 -6.80241475 21.1863273 -12 26 C-11.59328021 19.72191501 -8.48585472 14.96057218 -5.4375 9.625 C-4.91736328 8.69816406 -4.39722656 7.77132813 -3.86132812 6.81640625 C-2.58212166 4.53965346 -1.29487762 2.26786477 0 0 Z " fill="#3E57C5" transform="translate(337,410)"/>
<path d="M0 0 C3.11907866 2.8071708 4.52686579 5.10671674 6 9 C6.66 9.33 7.32 9.66 8 10 C8 11.32 8 12.64 8 14 C8.66 14 9.32 14 10 14 C10.28875 14.969375 10.5775 15.93875 10.875 16.9375 C11.64214682 20.10664203 11.64214682 20.10664203 14 21 C14 22.65 14 24.3 14 26 C10.22538936 21.64332324 7.52205124 16.89531372 4.75 11.875 C4.29109375 11.06417969 3.8321875 10.25335938 3.359375 9.41796875 C2.92625 8.63808594 2.493125 7.85820312 2.046875 7.0546875 C1.65338867 6.34812012 1.25990234 5.64155273 0.85449219 4.91357422 C0 3 0 3 0 0 Z " fill="#4158C5" transform="translate(497,176)"/>
<path d="M0 0 C2.36280927 2.14800843 3.58340234 4.16680467 5 7 C5.66 7.33 6.32 7.66 7 8 C7.73677014 9.64098804 8.46475593 11.28688982 9.1328125 12.95703125 C10.34277816 15.80753593 11.83246988 18.49360485 13.328125 21.203125 C14 23 14 23 13 26 C11.01336816 22.42075685 9.03700964 18.83594259 7.0625 15.25 C6.49853516 14.23421875 5.93457031 13.2184375 5.35351562 12.171875 C4.81533203 11.1921875 4.27714844 10.2125 3.72265625 9.203125 C2.97640991 7.85202637 2.97640991 7.85202637 2.21508789 6.47363281 C1.13983402 4.28466913 0.46896979 2.38129738 0 0 Z " fill="#4458B9" transform="translate(142,262)"/>
<path d="M0 0 C0.66 0 1.32 0 2 0 C3.67703806 2.93169446 5.33979518 5.87124524 7 8.8125 C7.47695313 9.64587891 7.95390625 10.47925781 8.4453125 11.33789062 C8.89648438 12.14033203 9.34765625 12.94277344 9.8125 13.76953125 C10.23144531 14.50792236 10.65039062 15.24631348 11.08203125 16.00708008 C12 18 12 18 12 21 C11.34 21 10.68 21 10 21 C9.52949219 20.03578125 9.05898438 19.0715625 8.57421875 18.078125 C7.94552821 16.80197704 7.31660993 15.52594126 6.6875 14.25 C6.37876953 13.61578125 6.07003906 12.9815625 5.75195312 12.328125 C4.41742293 9.63096924 3.09942775 7.13017629 1.26953125 4.734375 C0 3 0 3 0 0 Z " fill="#EAB55D" transform="translate(477,181)"/>
<path d="M0 0 C0 3.87023069 -1.57905612 6.51972231 -3.3125 9.875 C-3.62123047 10.48730469 -3.92996094 11.09960938 -4.24804688 11.73046875 C-6.03332718 15.2408936 -7.93010584 18.64995591 -10 22 C-10.82717993 19.64308119 -11.13637481 18.4003229 -10.3190918 16.0012207 C-9.94953369 15.31632568 -9.57997559 14.63143066 -9.19921875 13.92578125 C-8.59883789 12.80139648 -8.59883789 12.80139648 -7.98632812 11.65429688 C-7.55771484 10.88150391 -7.12910156 10.10871094 -6.6875 9.3125 C-6.27048828 8.52810547 -5.85347656 7.74371094 -5.42382812 6.93554688 C-2.28426941 1.14213471 -2.28426941 1.14213471 0 0 Z " fill="#EDBD5C" transform="translate(68,391)"/>
<path d="M0 0 C0.99 0.33 1.98 0.66 3 1 C3.70381157 2.98723268 4.3711811 4.98777953 5 7 C5.66 7.33 6.32 7.66 7 8 C8 10.07421875 8 10.07421875 9 12.6875 C9.51820313 14.03521484 9.51820313 14.03521484 10.046875 15.41015625 C11.09374493 18.25472497 12.08720352 21.10947782 13 24 C10.54879544 21.76503893 9.05885408 19.55118937 7.51953125 16.62109375 C7.07802734 15.78255859 6.63652344 14.94402344 6.18164062 14.08007812 C5.72982422 13.20802734 5.27800781 12.33597656 4.8125 11.4375 C4.34908203 10.56158203 3.88566406 9.68566406 3.40820312 8.78320312 C0 2.26294413 0 2.26294413 0 0 Z " fill="#415ACA" transform="translate(210,387)"/>
<path d="M0 0 C3.64063263 1.21354421 3.79243419 1.9436047 5.48046875 5.25390625 C5.92197266 6.10791016 6.36347656 6.96191406 6.81835938 7.84179688 C7.27017578 8.73962891 7.72199219 9.63746094 8.1875 10.5625 C8.65091797 11.46419922 9.11433594 12.36589844 9.59179688 13.29492188 C10.73666113 15.52563676 11.87223559 17.7606047 13 20 C12.34 20.66 11.68 21.32 11 22 C10.45730469 20.97519531 9.91460937 19.95039063 9.35546875 18.89453125 C8.63288255 17.53381697 7.91022238 16.17314196 7.1875 14.8125 C6.83107422 14.13896484 6.47464844 13.46542969 6.10742188 12.77148438 C4.54918871 9.84086237 2.97857113 6.96517215 1.23828125 4.13671875 C0 2 0 2 0 0 Z " fill="#3E56CA" transform="translate(171,157)"/>
<path d="M0 0 C-1.39029137 4.17087411 -4.27843718 5.18208698 -7.9375 7.1875 C-8.58396484 7.55552734 -9.23042969 7.92355469 -9.89648438 8.30273438 C-14.71553224 11 -14.71553224 11 -17 11 C-17 10.34 -17 9.68 -17 9 C-14.89914656 7.55307418 -12.81758184 6.23038317 -10.625 4.9375 C-10.02171875 4.57333984 -9.4184375 4.20917969 -8.796875 3.83398438 C-2.41871245 0 -2.41871245 0 0 0 Z " fill="#EDBD5C" transform="translate(296,8)"/>
<path d="M0 0 C0.81984375 0.07927734 1.6396875 0.15855469 2.484375 0.24023438 C3.27328125 0.32982422 4.0621875 0.41941406 4.875 0.51171875 C5.95394531 0.63293091 5.95394531 0.63293091 7.0546875 0.7565918 C9.41033433 1.42976045 10.42537313 2.47450689 12 4.3125 C3.97885214 3.46816865 -4.00861581 2.39696979 -12 1.3125 C-7.79561762 -1.49042159 -4.85575637 -0.58406503 0 0 Z " fill="#EFC46A" transform="translate(340,0.6875)"/>
<path d="M0 0 C0.33 0.66 0.66 1.32 1 2 C0.28735352 3.78759766 0.28735352 3.78759766 -0.87109375 5.9140625 C-1.28037109 6.67460937 -1.68964844 7.43515625 -2.11132812 8.21875 C-2.54896484 9.0128125 -2.98660156 9.806875 -3.4375 10.625 C-3.87126953 11.42679688 -4.30503906 12.22859375 -4.75195312 13.0546875 C-5.82756988 15.04044151 -6.91047213 17.0218546 -8 19 C-8.66 19 -9.32 19 -10 19 C-9.42415568 16.61435923 -8.77772405 14.33317216 -8 12 C-7.34 12 -6.68 12 -6 12 C-5.9175 11.484375 -5.835 10.96875 -5.75 10.4375 C-4.62440861 6.77932799 -2.72099116 2.72099116 0 0 Z " fill="#E9B95A" transform="translate(267,234)"/>
<path d="M0 0 C0.33 0.66 0.66 1.32 1 2 C-1.79040505 2.38838614 -4.58137886 2.76120046 -7.375 3.125 C-8.56609375 3.29322266 -8.56609375 3.29322266 -9.78125 3.46484375 C-11.84521885 3.72721267 -13.92339351 3.87150738 -16 4 C-16.66 3.34 -17.32 2.68 -18 2 C-11.85221129 0.3722167 -6.35987804 -0.20190089 0 0 Z " fill="#F6D069" transform="translate(569,523)"/>
<path d="M0 0 C0.66 0.99 1.32 1.98 2 3 C-5.29840547 13.55808656 -5.29840547 13.55808656 -9 18 C-9.99 17.67 -10.98 17.34 -12 17 C-11.55269531 16.52691406 -11.10539063 16.05382812 -10.64453125 15.56640625 C-6.22545994 10.73275256 -2.93720153 5.84733207 0 0 Z " fill="#EEBE5D" transform="translate(609,490)"/>
<path d="M0 0 C2.40548547 2.20328525 3.90592958 4.37767778 5.4375 7.25 C7.00844952 10.18180244 8.63306546 13.04209608 10.375 15.875 C10.91125 16.90625 11.4475 17.9375 12 19 C11.67 19.99 11.34 20.98 11 22 C9.34646741 19.08763461 7.70355095 16.16941396 6.0625 13.25 C5.59392578 12.425 5.12535156 11.6 4.64257812 10.75 C4.19462891 9.95078125 3.74667969 9.1515625 3.28515625 8.328125 C2.87144775 7.5949707 2.45773926 6.86181641 2.03149414 6.10644531 C1.03422999 4.0699021 0.457253 2.21406716 0 0 Z " fill="#E4B55C" transform="translate(236,235)"/>
<path d="M0 0 C0.99 0.33 1.98 0.66 3 1 C3.72034825 2.54360339 4.4225576 4.09805484 5.03515625 5.6875 C6.72072533 9.72740647 8.85100557 13.55536057 10.890625 17.42578125 C11.25671875 18.27527344 11.6228125 19.12476563 12 20 C11.67 20.66 11.34 21.32 11 22 C9.15984502 18.7121022 7.32904953 15.41908674 5.5 12.125 C4.97535156 11.18785156 4.45070312 10.25070313 3.91015625 9.28515625 C3.41386719 8.38925781 2.91757813 7.49335938 2.40625 6.5703125 C1.94541016 5.74289551 1.48457031 4.91547852 1.00976562 4.06298828 C0 2 0 2 0 0 Z " fill="#E5B458" transform="translate(198,165)"/>
<path d="M0 0 C1 2 1 2 0.1796875 4.609375 C-2.27472809 10.51760894 -4.52329144 15.39538548 -9 20 C-9.33 19.34 -9.66 18.68 -10 18 C-9.19555664 16.12060547 -9.19555664 16.12060547 -7.91015625 13.8671875 C-7.45576172 13.06152344 -7.00136719 12.25585938 -6.53320312 11.42578125 C-6.04787109 10.58402344 -5.56253906 9.74226563 -5.0625 8.875 C-4.58103516 8.02550781 -4.09957031 7.17601563 -3.60351562 6.30078125 C-2.40942817 4.19634989 -1.20803163 2.09644809 0 0 Z " fill="#EBB853" transform="translate(233,86)"/>
<path d="M0 0 C0.66 0 1.32 0 2 0 C1.31008835 3.5589345 -0.14115347 6.39240746 -1.875 9.5625 C-2.38804688 10.51253906 -2.90109375 11.46257812 -3.4296875 12.44140625 C-4.79627633 14.66806218 -6.06141286 16.27616652 -8 18 C-7.39733215 13.49272353 -5.63400206 10.1412037 -3.4375 6.1875 C-2.9434668 5.2912793 -2.9434668 5.2912793 -2.43945312 4.37695312 C-1.63226733 2.91466002 -0.81695083 1.4568601 0 0 Z " fill="#EDBC5A" transform="translate(77,372)"/>
<path d="M0 0 C0.99 0 1.98 0 3 0 C4.20284401 2.07573081 5.38705701 4.15883095 6.5625 6.25 C7.07586914 7.12978516 7.07586914 7.12978516 7.59960938 8.02734375 C10.09168309 12.50804195 10.09168309 12.50804195 9.58959961 15.20214844 C9.39503174 15.79543945 9.20046387 16.38873047 9 17 C7.49743011 14.35559624 5.9978388 11.70958148 4.5 9.0625 C4.07074219 8.30775391 3.64148438 7.55300781 3.19921875 6.77539062 C2.79316406 6.05673828 2.38710938 5.33808594 1.96875 4.59765625 C1.59169922 3.93258057 1.21464844 3.26750488 0.82617188 2.58227539 C0 1 0 1 0 0 Z " fill="#ECBF65" transform="translate(503,230)"/>
<path d="M0 0 C0.99 0.495 0.99 0.495 2 1 C2.73075648 3.3140622 3.40138258 5.64828869 4 8 C4.66 8 5.32 8 6 8 C6 9.32 6 10.64 6 12 C6.66 12 7.32 12 8 12 C9.4606285 14.64738916 10 15.89448334 10 19 C9.34 19 8.68 19 8 19 C6.65632608 16.58858519 5.32497485 14.17166012 4 11.75 C3.42765625 10.72712891 3.42765625 10.72712891 2.84375 9.68359375 C2.4828125 9.01972656 2.121875 8.35585937 1.75 7.671875 C1.24726563 6.76066895 1.24726563 6.76066895 0.734375 5.83105469 C0 4 0 4 0 0 Z " fill="#ECBA57" transform="translate(383,216)"/>
<path d="M0 0 C1 1 2 2 3 3 C3.48726563 3.42539062 3.97453125 3.85078125 4.4765625 4.2890625 C6.35963445 6.40389715 7.09690683 8.40809611 8.0625 11.0625 C9.44523355 14.89193066 9.44523355 14.89193066 12 18 C11.67 18.99 11.34 19.98 11 21 C9.72593712 18.96028888 8.45570798 16.91834736 7.1875 14.875 C6.83107422 14.30523437 6.47464844 13.73546875 6.10742188 13.1484375 C0 3.28691227 0 3.28691227 0 0 Z " fill="#3D58CA" transform="translate(259,477)"/>
<path d="M0 0 C0.66 0 1.32 0 2 0 C3.36965208 2.24179377 4.72052808 4.49172338 6.0625 6.75 C6.45244141 7.38421875 6.84238281 8.0184375 7.24414062 8.671875 C10.08862881 13.50498766 10.08862881 13.50498766 9.60327148 16.21582031 C9.3046521 17.09898926 9.3046521 17.09898926 9 18 C7.49480613 15.37785672 5.99568681 12.75255792 4.5 10.125 C3.85611328 9.00544922 3.85611328 9.00544922 3.19921875 7.86328125 C2.79316406 7.14785156 2.38710938 6.43242187 1.96875 5.6953125 C1.59169922 5.03547363 1.21464844 4.37563477 0.82617188 3.69580078 C0 2 0 2 0 0 Z " fill="#ECBB5A" transform="translate(569,351)"/>
<path d="M0 0 C0.66 0 1.32 0 2 0 C3.18568576 2.37137152 4.37050841 4.74311433 5.55078125 7.1171875 C6.51070477 9.02668496 7.4871274 10.92798412 8.48046875 12.8203125 C8.94066406 13.70460938 9.40085937 14.58890625 9.875 15.5 C10.30554688 16.3146875 10.73609375 17.129375 11.1796875 17.96875 C11.45039063 18.6390625 11.72109375 19.309375 12 20 C11.67 20.66 11.34 21.32 11 22 C9.34646741 19.08763461 7.70355095 16.16941396 6.0625 13.25 C5.59392578 12.425 5.12535156 11.6 4.64257812 10.75 C4.19462891 9.95078125 3.74667969 9.1515625 3.28515625 8.328125 C2.87144775 7.5949707 2.45773926 6.86181641 2.03149414 6.10644531 C1.03422999 4.0699021 0.457253 2.21406716 0 0 Z " fill="#E5B457" transform="translate(431,306)"/>
<path d="M0 0 C2.6460081 3.32384351 4.70236112 6.84375088 6.75 10.5625 C7.38421875 11.69816406 8.0184375 12.83382813 8.671875 14.00390625 C10 17 10 17 9 20 C8.03697644 18.44038638 7.07978996 16.87716775 6.125 15.3125 C5.59132812 14.44238281 5.05765625 13.57226562 4.5078125 12.67578125 C2.1825253 8.54930009 0.79925288 4.66230846 0 0 Z " fill="#3D54CA" transform="translate(243,287)"/>
<path d="M0 0 C3.82085575 3.13856008 5.2943289 6.5902271 7.0703125 11.07421875 C7.84324067 13.17622541 7.84324067 13.17622541 10 14 C10.73075648 16.3140622 11.40138258 18.64828869 12 21 C11.34 21 10.68 21 10 21 C8.32296194 18.06830554 6.66020482 15.12875476 5 12.1875 C4.28457031 10.93743164 4.28457031 10.93743164 3.5546875 9.66210938 C3.10351562 8.85966797 2.65234375 8.05722656 2.1875 7.23046875 C1.76855469 6.49207764 1.34960938 5.75368652 0.91796875 4.99291992 C0 3 0 3 0 0 Z " fill="#3E58C8" transform="translate(127,234)"/>
<path d="M0 0 C0.66 0 1.32 0 2 0 C5 6 8 12 11 18 C8 17 8 17 6.3125 14.0625 C5 11 5 11 5 9 C4.01 8.67 3.02 8.34 2 8 C1.26953125 6.15234375 1.26953125 6.15234375 0.8125 3.9375 C0.65394531 3.20402344 0.49539062 2.47054687 0.33203125 1.71484375 C0.22246094 1.14894531 0.11289063 0.58304688 0 0 Z " fill="#384DA7" transform="translate(193,196)"/>
<path d="M0 0 C2.42702437 2.2676377 4.23601267 4.66740541 6.0625 7.4375 C6.56910156 8.19933594 7.07570312 8.96117187 7.59765625 9.74609375 C11.12479245 15.4150564 11.12479245 15.4150564 10.54711914 18.12280273 C10.27629517 19.05201538 10.27629517 19.05201538 10 20 C8.3264663 17.04550087 6.66236015 14.0857982 5 11.125 C4.52304688 10.28324219 4.04609375 9.44148437 3.5546875 8.57421875 C3.10351562 7.76855469 2.65234375 6.96289062 2.1875 6.1328125 C1.76855469 5.38918457 1.34960938 4.64555664 0.91796875 3.87939453 C0 2 0 2 0 0 Z " fill="#E6B558" transform="translate(212,191)"/>
<path d="M0 0 C3.04408304 3.56687122 5.21082201 7.09510916 7.25 11.3125 C7.77078125 12.38113281 8.2915625 13.44976562 8.828125 14.55078125 C9.21484375 15.35902344 9.6015625 16.16726562 10 17 C9.01 17.33 8.02 17.66 7 18 C6.5875 17.01 6.175 16.02 5.75 15 C4.2635768 11.50086021 2.55977072 8.14938336 0.76953125 4.796875 C0 3 0 3 0 0 Z " fill="#485DBE" transform="translate(184,179)"/>
<path d="M0 0 C0.66 0 1.32 0 2 0 C2.40992188 0.75925781 2.81984375 1.51851562 3.2421875 2.30078125 C3.78101563 3.29464844 4.31984375 4.28851563 4.875 5.3125 C5.40867187 6.29863281 5.94234375 7.28476563 6.4921875 8.30078125 C8.00722126 11.09586458 8.00722126 11.09586458 10 14 C10 14.99 10 15.98 10 17 C9.34 17 8.68 17 8 17 C7.34 14.69 6.68 12.38 6 10 C5.34 10 4.68 10 4 10 C3.32845067 8.71086513 2.66291141 7.41859796 2 6.125 C1.62875 5.40570313 1.2575 4.68640625 0.875 3.9453125 C0 2 0 2 0 0 Z " fill="#EAB452" transform="translate(459,148)"/>
<path d="M0 0 C3.96873434 1.32291145 4.29905037 2.91149738 6.1875 6.5625 C6.71730469 7.57441406 7.24710937 8.58632813 7.79296875 9.62890625 C8.19128906 10.41136719 8.58960938 11.19382812 9 12 C8.01 12 7.02 12 6 12 C4.68 9.36 3.36 6.72 2 4 C1.34 4 0.68 4 0 4 C-0.66 4.66 -1.32 5.32 -2 6 C-1.125 1.125 -1.125 1.125 0 0 Z " fill="#4459C0" transform="translate(401,293)"/>
<path d="M0 0 C0.66 0 1.32 0 2 0 C4.97 5.28 7.94 10.56 11 16 C10.01 16.33 9.02 16.66 8 17 C4.04 8.585 4.04 8.585 0 0 Z " fill="#3F56C9" transform="translate(431,347)"/>
<path d="M0 0 C3 1 3 1 4.421875 3.1796875 C4.86015625 4.06914062 5.2984375 4.95859375 5.75 5.875 C6.19859375 6.75929688 6.6471875 7.64359375 7.109375 8.5546875 C8 11 8 11 7 14 C3.37988643 9.33195882 1.29322068 5.7607103 0 0 Z " fill="#3E57C5" transform="translate(415,318)"/>
<path d="M0 0 C0.99 0 1.98 0 3 0 C3.99 2.31 4.98 4.62 6 7 C5.01 7 4.02 7 3 7 C2.34 6.34 1.68 5.68 1 5 C0.34 5 -0.32 5 -1 5 C-1 5.66 -1 6.32 -1 7 C-1.66 7 -2.32 7 -3 7 C-1.125 1.125 -1.125 1.125 0 0 Z " fill="#E9B55F" transform="translate(128,279)"/>
<path d="M0 0 C0.99 0.495 0.99 0.495 2 1 C2 1.99 2 2.98 2 4 C2.66 4 3.32 4 4 4 C6.74522883 8.42778844 8.48474397 11.71862571 9 17 C6.20546094 14.51596528 4.59290588 11.77067154 2.8125 8.5 C2.28269531 7.5409375 1.75289063 6.581875 1.20703125 5.59375 C0 3 0 3 0 0 Z " fill="#E9B857" transform="translate(403,254)"/>
<path d="M0 0 C3.8665284 3.222107 4.88059018 6.14922412 6 11 C6.66 11 7.32 11 8 11 C8 11.99 8 12.98 8 14 C8.66 14 9.32 14 10 14 C10 14.99 10 15.98 10 17 C7 16 7 16 5.4296875 13.41796875 C4.91664063 12.35191406 4.40359375 11.28585938 3.875 10.1875 C3.35679687 9.12917969 2.83859375 8.07085937 2.3046875 6.98046875 C1.26867178 4.61376219 0.50023081 2.51945518 0 0 Z " fill="#EAB855" transform="translate(393,236)"/>
<path d="M0 0 C0.33 0 0.66 0 1 0 C1.1875 2.8125 1.1875 2.8125 1 6 C-0.4375 7.625 -0.4375 7.625 -2 9 C-2.144375 9.66 -2.28875 10.32 -2.4375 11 C-3.20391605 13.72503485 -4.67901268 14.50258883 -7 16 C-6.28028381 12.24654344 -4.66887798 9.13908031 -2.9375 5.75 C-2.11572266 4.13351562 -2.11572266 4.13351562 -1.27734375 2.484375 C-0.64505859 1.25460937 -0.64505859 1.25460937 0 0 Z " fill="#3A53C5" transform="translate(346,393)"/>
<path d="M0 0 C0.66 0 1.32 0 2 0 C0.76995508 4.06861014 -0.76122773 7.39849678 -3 11 C-3.33 11.99 -3.66 12.98 -4 14 C-4.66 14 -5.32 14 -6 14 C-5.41892368 10.2397015 -4.34800504 7.46964968 -2.4375 4.1875 C-1.98246094 3.39730469 -1.52742188 2.60710937 -1.05859375 1.79296875 C-0.53458984 0.90544922 -0.53458984 0.90544922 0 0 Z " fill="#425BCD" transform="translate(367,355)"/>
<path d="M0 0 C5.55022521 4.99520269 7.95205495 11.01836915 10 18 C6.87084199 15.3137382 5.2357324 12.04608071 3.3125 8.4375 C2.68988281 7.28121094 2.06726563 6.12492187 1.42578125 4.93359375 C0 2 0 2 0 0 Z " fill="#E8B451" transform="translate(413,273)"/>
<path d="M0 0 C0.66 0.33 1.32 0.66 2 1 C1.24266726 2.3410477 0.46867264 3.67269781 -0.3125 5 C-0.74175781 5.7425 -1.17101562 6.485 -1.61328125 7.25 C-2.07089844 7.8275 -2.52851563 8.405 -3 9 C-3.99 9 -4.98 9 -6 9 C-6.66 7.02 -7.32 5.04 -8 3 C-6.68 4.32 -5.36 5.64 -4 7 C-3.67 5.68 -3.34 4.36 -3 3 C-2.34 3 -1.68 3 -1 3 C-0.67 2.01 -0.34 1.02 0 0 Z " fill="#DEB25A" transform="translate(256,254)"/>
<path d="M0 0 C5.40694067 0.43255525 8.75366122 1.58221513 13 5 C13 5.66 13 6.32 13 7 C8.50202887 5.31326082 4.27113698 3.18326108 0 1 C0 0.67 0 0.34 0 0 Z " fill="#EFBF5E" transform="translate(361,8)"/>
<path d="M0 0 C0.66 0 1.32 0 2 0 C0.7986165 3.60415049 -0.26143988 4.14706011 -3.375 6.1875 C-4.16648437 6.71730469 -4.95796875 7.24710938 -5.7734375 7.79296875 C-8 9 -8 9 -11 9 C-11 8.34 -11 7.68 -11 7 C-10.37351562 6.66226563 -9.74703125 6.32453125 -9.1015625 5.9765625 C-8.28429687 5.53054688 -7.46703125 5.08453125 -6.625 4.625 C-5.40683594 3.96371094 -5.40683594 3.96371094 -4.1640625 3.2890625 C-1.89185698 2.0556107 -1.89185698 2.0556107 0 0 Z " fill="#EDBC59" transform="translate(593,510)"/>
<path d="M0 0 C1 4 1 4 0.00390625 6.359375 C-0.47175781 7.14828125 -0.94742188 7.9371875 -1.4375 8.75 C-1.91058594 9.54921875 -2.38367188 10.3484375 -2.87109375 11.171875 C-3.24363281 11.77515625 -3.61617188 12.3784375 -4 13 C-4.99 13 -5.98 13 -7 13 C-3.535 6.565 -3.535 6.565 0 0 Z " fill="#EDB557" transform="translate(112,308)"/>
<path d="M0 0 C0.66 0.33 1.32 0.66 2 1 C1.04901734 2.98270912 0.08899297 4.96108379 -0.875 6.9375 C-1.40867187 8.03964844 -1.94234375 9.14179688 -2.4921875 10.27734375 C-4 13 -4 13 -6 14 C-5.41892368 10.2397015 -4.34800504 7.46964968 -2.4375 4.1875 C-1.98246094 3.39730469 -1.52742188 2.60710937 -1.05859375 1.79296875 C-0.53458984 0.90544922 -0.53458984 0.90544922 0 0 Z " fill="#ECBE64" transform="translate(123,288)"/>
<path d="M0 0 C0.66 0 1.32 0 2 0 C3.0076952 1.7664657 4.00591714 3.53833823 5 5.3125 C5.8353125 6.79169922 5.8353125 6.79169922 6.6875 8.30078125 C8 11 8 11 8 14 C7.34 14 6.68 14 6 14 C4.02 9.38 2.04 4.76 0 0 Z " fill="#405ACA" transform="translate(261,322)"/>
<path d="M0 0 C0.91007812 0.00902344 1.82015625 0.01804687 2.7578125 0.02734375 C3.45648438 0.03894531 4.15515625 0.05054688 4.875 0.0625 C4.875 0.7225 4.875 1.3825 4.875 2.0625 C-3.69642857 3.49107143 -3.69642857 3.49107143 -7.125 1.0625 C-4.60024538 -0.19987731 -2.81299534 -0.03606404 0 0 Z " fill="#F2C664" transform="translate(80.125,522.9375)"/>
<path d="M0 0 C0.66 0 1.32 0 2 0 C3.03572896 1.74122549 4.0531252 3.49336595 5.0625 5.25 C5.63097656 6.22453125 6.19945312 7.1990625 6.78515625 8.203125 C8 11 8 11 7.68359375 13.359375 C7.45800781 13.90078125 7.23242188 14.4421875 7 15 C5.83092416 12.68868934 4.66464108 10.37604377 3.5 8.0625 C3.16613281 7.40314453 2.83226562 6.74378906 2.48828125 6.06445312 C0 1.11328125 0 1.11328125 0 0 Z " fill="#405ACA" transform="translate(315,421)"/>
<path d="M0 0 C0.66 0 1.32 0 2 0 C4.34904741 2.9580597 5.0325687 4.4354759 4.8125 8.25 C4.4103125 9.61125 4.4103125 9.61125 4 11 C3.01 11.495 3.01 11.495 2 12 C1.34 8.04 0.68 4.08 0 0 Z " fill="#4057C7" transform="translate(441,365)"/>
<path d="M0 0 C-1.57725347 0.70133599 -3.16211333 1.385583 -4.75 2.0625 C-5.63171875 2.44535156 -6.5134375 2.82820312 -7.421875 3.22265625 C-10.15256309 4.04600008 -11.36901347 3.9773992 -14 3 C-11.39395012 1.26263341 -9.92766764 0.54996173 -7 -0.1875 C-6.319375 -0.36667969 -5.63875 -0.54585937 -4.9375 -0.73046875 C-3 -1 -3 -1 0 0 Z " fill="#ECB74B" transform="translate(583,520)"/>
<path d="M0 0 C0.66 0 1.32 0 2 0 C6 6.625 6 6.625 6 10 C5.34 10 4.68 10 4 10 C0 3.375 0 3.375 0 0 Z " fill="#EDBB58" transform="translate(555,325)"/>
<path d="M0 0 C0.66 0 1.32 0 2 0 C0.77472971 4.05281712 -0.69880494 7.44360764 -3 11 C-4 9 -4 9 -3.4765625 7.08984375 C-3.05503906 6.02443359 -3.05503906 6.02443359 -2.625 4.9375 C-2.34914063 4.22464844 -2.07328125 3.51179687 -1.7890625 2.77734375 C-1 1 -1 1 0 0 Z " fill="#EAB852" transform="translate(304,164)"/>
<path d="M0 0 C3 1 3 1 4.16796875 2.84765625 C4.50441406 3.57855469 4.84085938 4.30945313 5.1875 5.0625 C5.53167969 5.79597656 5.87585938 6.52945313 6.23046875 7.28515625 C6.48441406 7.85105469 6.73835937 8.41695312 7 9 C6.01 9.495 6.01 9.495 5 10 C4.67 8.68 4.34 7.36 4 6 C3.34 6 2.68 6 2 6 C1.34 4.02 0.68 2.04 0 0 Z " fill="#495FC2" transform="translate(201,213)"/>
<path d="M0 0 C2.33524782 2.25740623 4.18705073 4.2805761 6 7 C5.625 9.1875 5.625 9.1875 5 11 C4.16151196 9.54462432 3.32936066 8.08559627 2.5 6.625 C1.80390625 5.40683594 1.80390625 5.40683594 1.09375 4.1640625 C0 2 0 2 0 0 Z " fill="#ECBC5C" transform="translate(433,100)"/>
<path d="M0 0 C1 3 1 3 0.22265625 4.82421875 C-0.8515625 6.54947917 -1.92578125 8.27473958 -3 10 C-3.33 10 -3.66 10 -4 10 C-4.25 7.25 -4.25 7.25 -4 4 C-2 1.625 -2 1.625 0 0 Z " fill="#E09144" transform="translate(177,400)"/>
<path d="M0 0 C0.99 0 1.98 0 3 0 C4.06775224 1.96466413 5.06553465 3.96855359 6 6 C5.67 6.66 5.34 7.32 5 8 C1.39345961 5.59563974 1.14547068 4.05320393 0 0 Z " fill="#E3A94F" transform="translate(585,381)"/>
<path d="M0 0 C4.42857143 5.14285714 4.42857143 5.14285714 5 9 C2 8 2 8 0 5 C-0.125 2.3125 -0.125 2.3125 0 0 Z " fill="#EE9D49" transform="translate(427,87)"/>
<path d="M0 0 C0.99 0.33 1.98 0.66 3 1 C1.35 3.64 -0.3 6.28 -2 9 C-2.33 8.34 -2.66 7.68 -3 7 C-2.06421005 4.64018187 -1.06652192 2.30368736 0 0 Z " fill="#EBBA50" transform="translate(119,504)"/>
<path d="M0 0 C1 3 1 3 0.00390625 5.04296875 C-0.47175781 5.75066406 -0.94742187 6.45835937 -1.4375 7.1875 C-1.91058594 7.90292969 -2.38367188 8.61835938 -2.87109375 9.35546875 C-3.24363281 9.89816406 -3.61617188 10.44085938 -4 11 C-5 9 -5 9 -4.51171875 7.08984375 C-4.10373047 6.02443359 -4.10373047 6.02443359 -3.6875 4.9375 C-3.42324219 4.22464844 -3.15898437 3.51179688 -2.88671875 2.77734375 C-2 1 -2 1 0 0 Z " fill="#3851BD" transform="translate(397,460)"/>
<path d="M0 0 C0.66 0 1.32 0 2 0 C1.43454163 3.95820859 0.19097652 6.6659053 -2 10 C-3 8 -3 8 -2.44140625 6.0546875 C-2.15136719 5.33539063 -1.86132812 4.61609375 -1.5625 3.875 C-1.27503906 3.15054687 -0.98757812 2.42609375 -0.69140625 1.6796875 C-0.46324219 1.12539063 -0.23507813 0.57109375 0 0 Z " fill="#EAB854" transform="translate(143,459)"/>
<path d="M0 0 C0.66 0 1.32 0 2 0 C2.67154933 1.28913487 3.33708859 2.58140204 4 3.875 C4.37125 4.59429687 4.7425 5.31359375 5.125 6.0546875 C6 8 6 8 6 10 C5.34 10 4.68 10 4 10 C2.27735506 6.70450534 0.70554068 3.66881155 0 0 Z " fill="#415AC9" transform="translate(255,311)"/>
<path d="M0 0 C2.32472205 2.85306797 3.7508258 5.54074837 5 9 C1.125 7.125 1.125 7.125 0 6 C-0.04080783 4.00041636 -0.04254356 1.99954746 0 0 Z " fill="#324AA2" transform="translate(237,275)"/>
<path d="M0 0 C0.66 0 1.32 0 2 0 C1.43454163 3.95820859 0.19097652 6.6659053 -2 10 C-3 8 -3 8 -2.44140625 6.0546875 C-2.15136719 5.33539063 -1.86132812 4.61609375 -1.5625 3.875 C-1.27503906 3.15054688 -0.98757813 2.42609375 -0.69140625 1.6796875 C-0.46324219 1.12539062 -0.23507812 0.57109375 0 0 Z " fill="#EBB954" transform="translate(279,209)"/>
<path d="M0 0 C0.66 0 1.32 0 2 0 C3.96189209 3.6678852 5.39301257 6.87248551 6 11 C2.90407165 7.4912812 1.25805377 4.50802601 0 0 Z " fill="#4259C4" transform="translate(511,202)"/>
<path d="M0 0 C0.66 0.66 1.32 1.32 2 2 C-0.31 4.64 -2.62 7.28 -5 10 C-5 7 -5 7 -3.625 5.5625 C-3.08875 5.046875 -2.5525 4.53125 -2 4 C-0.82425289 1.90010348 -0.82425289 1.90010348 0 0 Z " fill="#F0BE59" transform="translate(273,22)"/>
<path d="M0 0 C0.66 0 1.32 0 2 0 C5.22265625 5.2734375 5.22265625 5.2734375 6 7 C5.67 7.66 5.34 8.32 5 9 C4.67 8.01 4.34 7.02 4 6 C3.34 6 2.68 6 2 6 C0 3 0 3 0 0 Z " fill="#EBB954" transform="translate(421,78)"/>
<path d="M0 0 C0.66 0 1.32 0 2 0 C3.06652192 2.30368736 4.06421005 4.64018187 5 7 C4.67 7.66 4.34 8.32 4 9 C0 2.25 0 2.25 0 0 Z " fill="#E5B457" transform="translate(443,328)"/>
<path d="M0 0 C3 1 3 1 4.6875 4.0625 C5.120625 5.031875 5.55375 6.00125 6 7 C4.125 6.875 4.125 6.875 2 6 C0.75 2.9375 0.75 2.9375 0 0 Z " fill="#394DD2" transform="translate(409,307)"/>
<path d="M0 0 C3.67230705 3.07999946 4.56802365 5.2482602 5 10 C2.66063182 7.87330165 1.19346152 5.93775144 0 3 C0 2.01 0 1.02 0 0 Z " fill="#EBB751" transform="translate(335,129)"/>
</svg>
